<svg xmlns="http://www.w3.org/2000/svg" width="1113" height="238" viewBox="0 0 1113 238" role="img" aria-labelledby="title">
<title id="title">LITOPENCODE display type</title>
<rect width="100%" height="100%" fill="#080D14"/>
<g transform="translate(24 24) scale(0.999062 1.354962)"><path d="M0 0H28V112H78L62 140H0Z" fill="#F2EFDF" transform="translate(0 0)" fill-rule="evenodd" /><path d="M0 0H28V140H0Z" fill="#F2EFDF" transform="translate(90 0)" fill-rule="evenodd" /><path d="M0 0H94V28H61V140H33V28H0Z" fill="#F2EFDF" transform="translate(130 0)" fill-rule="evenodd" /><path d="M26 0H70L96 26V114L70 140H26L0 114V26Z M28 39V101L39 112H57L68 101V39L57 28H39Z" fill="#F2EFDF" transform="translate(236 0)" fill-rule="evenodd" /><path d="M0 0H67L94 27V63L67 90H28V140H0Z M28 28V62H54L66 50V40L54 28Z" fill="#F2EFDF" transform="translate(344 0)" fill-rule="evenodd" /><path d="M0 0H86V28H28V56H74L59 84H28V112H86V140H0Z" fill="#F2EFDF" transform="translate(450 0)" fill-rule="evenodd" /><path d="M0 140V0H27L72 84V0H100V140H73L28 56V140Z" fill="#F2EFDF" transform="translate(548 0)" fill-rule="evenodd" /><path d="M92 0H24L0 24V116L24 140H92V112H35L28 105V35L35 28H92Z" fill="#F2EFDF" transform="translate(660 0)" fill-rule="evenodd" /><path d="M26 0H70L96 26V114L70 140H26L0 114V26Z M28 39V101L39 112H57L68 101V39L57 28H39Z" fill="#F2EFDF" transform="translate(764 0)" fill-rule="evenodd" /><path d="M0 0H66L96 30V110L66 140H0Z M28 28V112H53L68 97V43L53 28Z" fill="#F2EFDF" transform="translate(872 0)" fill-rule="evenodd" /><path d="M0 0H86V28H28V56H74L59 84H28V112H86V140H0Z" fill="#F2EFDF" transform="translate(980 0)" fill-rule="evenodd" /></g>
</svg>
